<svg xmlns="http://www.w3.org/2000/svg" xmlns:xlink="http://www.w3.org/1999/xlink" width="1920" zoomAndPan="magnify" viewBox="0 0 1440 809.999993" height="1080" preserveAspectRatio="xMidYMid meet" version="1.0"><defs><clipPath id="b560e00ffb"><path d="M 12.75 490.40625 L 200.25 490.40625 L 200.25 731.15625 L 12.75 731.15625 Z M 12.75 490.40625 " clip-rule="nonzero"/></clipPath><clipPath id="f31e10e2e4"><path d="M 22 493 L 200.25 493 L 200.25 722 L 22 722 Z M 22 493 " clip-rule="nonzero"/></clipPath><clipPath id="e5cb2eb83d"><path d="M 208.929688 501.746094 L 292.929688 501.746094 L 292.929688 719.996094 L 208.929688 719.996094 Z M 208.929688 501.746094 " clip-rule="nonzero"/></clipPath><clipPath id="89c7ce87c5"><path d="M 209 505 L 290 505 L 290 719.996094 L 209 719.996094 Z M 209 505 " clip-rule="nonzero"/></clipPath><clipPath id="b38815738c"><path d="M 208.929688 501.746094 L 292.929688 501.746094 L 292.929688 719.996094 L 208.929688 719.996094 Z M 208.929688 501.746094 " clip-rule="nonzero"/></clipPath><clipPath id="4aaf2ef313"><path d="M 301.375 586.003906 L 458.875 586.003906 L 458.875 721.753906 L 301.375 721.753906 Z M 301.375 586.003906 " clip-rule="nonzero"/></clipPath><clipPath id="9c7a135cf5"><path d="M 301.375 587 L 458.875 587 L 458.875 721 L 301.375 721 Z M 301.375 587 " clip-rule="nonzero"/></clipPath><clipPath id="337137e468"><path d="M 301.375 586.003906 L 458.875 586.003906 L 458.875 721.753906 L 301.375 721.753906 Z M 301.375 586.003906 " clip-rule="nonzero"/></clipPath><clipPath id="83501f4907"><path d="M 457.980469 502.496094 L 578.542969 502.496094 L 578.542969 734.246094 L 457.980469 734.246094 Z M 457.980469 502.496094 " clip-rule="nonzero"/></clipPath><clipPath id="0679525e12"><path d="M 457.980469 502.496094 L 578.542969 502.496094 L 578.542969 734.246094 L 457.980469 734.246094 Z M 457.980469 502.496094 " clip-rule="nonzero"/></clipPath><clipPath id="c9aa8f3812"><path d="M 662.792969 587.277344 L 819.542969 587.277344 L 819.542969 723.027344 L 662.792969 723.027344 Z M 662.792969 587.277344 " clip-rule="nonzero"/></clipPath><clipPath id="42981fa328"><path d="M 662.792969 587.277344 L 819.542969 587.277344 L 819.542969 723.027344 L 662.792969 723.027344 Z M 662.792969 587.277344 " clip-rule="nonzero"/></clipPath><clipPath id="bae60164b5"><path d="M 819.496094 587.277344 L 987.496094 587.277344 L 987.496094 733.527344 L 819.496094 733.527344 Z M 819.496094 587.277344 " clip-rule="nonzero"/></clipPath><clipPath id="0a472d84b4"><path d="M 825 596 L 987.496094 596 L 987.496094 725 L 825 725 Z M 825 596 " clip-rule="nonzero"/></clipPath><clipPath id="3139b4ad45"><path d="M 819.496094 587.277344 L 987.496094 587.277344 L 987.496094 733.527344 L 819.496094 733.527344 Z M 819.496094 587.277344 " clip-rule="nonzero"/></clipPath><clipPath id="68f80a7b87"><path d="M 983.746094 579.875 L 1142.746094 579.875 L 1142.746094 729.875 L 983.746094 729.875 Z M 983.746094 579.875 " clip-rule="nonzero"/></clipPath><clipPath id="4d38841b58"><path d="M 983.746094 579.875 L 1142.746094 579.875 L 1142.746094 729.875 L 983.746094 729.875 Z M 983.746094 579.875 " clip-rule="nonzero"/></clipPath><clipPath id="ea20194f7f"><path d="M 1129.03125 582.820312 L 1279.78125 582.820312 L 1279.78125 721.570312 L 1129.03125 721.570312 Z M 1129.03125 582.820312 " clip-rule="nonzero"/></clipPath><clipPath id="b79b30d641"><path d="M 1138 584 L 1279 584 L 1279 721.570312 L 1138 721.570312 Z M 1138 584 " clip-rule="nonzero"/></clipPath><clipPath id="c1eb5d01c3"><path d="M 1129.03125 582.820312 L 1279.78125 582.820312 L 1279.78125 721.570312 L 1129.03125 721.570312 Z M 1129.03125 582.820312 " clip-rule="nonzero"/></clipPath><clipPath id="5e33a58f5c"><path d="M 577.050781 511.609375 L 658.050781 511.609375 L 658.050781 720.859375 L 577.050781 720.859375 Z M 577.050781 511.609375 " clip-rule="nonzero"/></clipPath><clipPath id="ab78a59c12"><path d="M 577.050781 515 L 655 515 L 655 720.859375 L 577.050781 720.859375 Z M 577.050781 515 " clip-rule="nonzero"/></clipPath><clipPath id="ccfc9e0822"><path d="M 577.050781 511.609375 L 658.050781 511.609375 L 658.050781 720.859375 L 577.050781 720.859375 Z M 577.050781 511.609375 " clip-rule="nonzero"/></clipPath><clipPath id="54692f574f"><path d="M 1281.148438 574.625 L 1440 574.625 L 1440 810 L 1281.148438 810 Z M 1281.148438 574.625 " clip-rule="nonzero"/></clipPath><clipPath id="fbafe3409c"><path d="M 1281.148438 584 L 1431 584 L 1431 801 L 1281.148438 801 Z M 1281.148438 584 " clip-rule="nonzero"/></clipPath><clipPath id="1642d93594"><path d="M 1281.148438 574.625 L 1440 574.625 L 1440 810 L 1281.148438 810 Z M 1281.148438 574.625 " clip-rule="nonzero"/></clipPath></defs><rect x="-144" width="1728" fill="#ffffff" y="-80.999999" height="971.999992" fill-opacity="1"/><rect x="-144" width="1728" fill="#ffffff" y="-80.999999" height="971.999992" fill-opacity="1"/><rect x="-144" width="1728" fill="#ffffff" y="-80.999999" height="971.999992" fill-opacity="1"/><g clip-path="url(#b560e00ffb)"><path fill="#ffffff" d="M 210.75 523.527344 L 200.851562 523.527344 L 200.851562 503.730469 L 200.847656 503.730469 L 200.847656 503.726562 L 190.953125 503.726562 L 190.953125 483.929688 L 12.75 483.929688 L 12.75 731.417969 L 190.953125 731.417969 L 190.953125 711.621094 L 200.851562 711.621094 L 200.851562 701.722656 L 210.75 701.722656 Z M 101.851562 662.121094 L 101.851562 563.125 L 111.75 563.125 L 111.75 662.121094 Z M 101.851562 662.121094 " fill-opacity="1" fill-rule="nonzero"/></g><g clip-path="url(#f31e10e2e4)"><path fill="#000000" d="M 190.949219 533.425781 L 190.949219 513.628906 L 181.050781 513.628906 L 181.050781 493.828125 L 22.648438 493.828125 L 22.648438 721.519531 L 181.050781 721.519531 L 181.050781 701.71875 L 190.949219 701.71875 L 190.949219 691.820312 L 200.847656 691.820312 L 200.847656 533.425781 Z M 121.648438 672.019531 L 91.949219 672.019531 L 91.949219 553.226562 L 121.648438 553.226562 L 121.648438 563.125 L 131.550781 563.125 L 131.550781 662.121094 L 121.648438 662.121094 Z M 121.648438 672.019531 " fill-opacity="1" fill-rule="nonzero"/></g><path fill="#fc98ec" d="M 171.152344 543.328125 L 171.152344 523.527344 L 151.351562 503.726562 L 52.351562 503.730469 L 39.101562 701.179688 L 62.253906 711.621094 L 161.25 711.621094 L 161.25 701.722656 L 171.152344 701.722656 L 171.152344 681.921875 L 181.050781 681.921875 L 181.050781 543.328125 Z M 141.449219 672.023438 L 131.550781 672.023438 L 131.550781 681.921875 L 72.152344 681.921875 L 72.152344 543.328125 L 131.550781 543.328125 L 131.550781 553.226562 L 141.449219 553.226562 Z M 141.449219 672.023438 " fill-opacity="1" fill-rule="nonzero"/><path fill="#ffffff" d="M 151.351562 652.222656 L 161.25 652.222656 L 161.25 681.921875 L 151.351562 681.921875 Z M 151.351562 652.222656 " fill-opacity="1" fill-rule="nonzero"/><path fill="#ffffff" d="M 151.351562 543.328125 L 161.25 543.328125 L 161.25 563.125 L 151.351562 563.125 Z M 151.351562 543.328125 " fill-opacity="1" fill-rule="nonzero"/><path fill="#fbbad8" d="M 171.152344 513.628906 L 171.152344 523.527344 L 161.25 523.527344 L 161.25 513.628906 Z M 151.351562 642.324219 L 151.351562 652.222656 L 161.25 652.222656 L 161.25 632.421875 L 151.351562 632.421875 Z M 151.351562 533.425781 L 151.351562 543.328125 L 161.25 543.328125 L 161.25 523.527344 L 151.351562 523.527344 Z M 151.351562 503.730469 L 151.351562 513.628906 L 161.25 513.628906 L 161.25 503.730469 Z M 151.351562 503.730469 " fill-opacity="1" fill-rule="nonzero"/><path fill="#fb4299" d="M 62.253906 701.722656 L 62.253906 711.621094 L 32.550781 711.621094 L 32.550781 503.730469 L 52.351562 503.730469 L 52.351562 701.722656 Z M 62.253906 701.722656 " fill-opacity="1" fill-rule="nonzero"/><g clip-path="url(#e5cb2eb83d)"><path fill="#ffffff" d="M 289.5625 563.09375 L 289.5625 574.59375 L 301.0625 574.59375 L 301.0625 735.597656 L 197.570312 735.597656 L 197.570312 574.59375 L 209.070312 574.59375 L 209.070312 563.09375 L 197.570312 563.09375 L 197.570312 517.089844 L 209.070312 517.089844 L 209.070312 505.589844 L 220.566406 505.589844 L 220.566406 494.089844 L 266.5625 494.089844 L 266.5625 505.589844 L 289.5625 505.589844 L 289.5625 517.089844 L 301.0625 517.089844 L 301.0625 563.09375 Z M 289.5625 563.09375 " fill-opacity="1" fill-rule="nonzero"/></g><g clip-path="url(#89c7ce87c5)"><path fill="#000000" d="M 209.070312 586.09375 L 289.5625 586.09375 L 289.5625 724.097656 L 209.070312 724.097656 Z M 266.5625 517.089844 L 266.5625 505.589844 L 220.566406 505.589844 L 220.566406 517.089844 L 209.070312 517.089844 L 209.070312 563.09375 L 220.566406 563.09375 L 220.566406 574.59375 L 266.5625 574.59375 L 266.5625 563.09375 L 289.5625 563.09375 L 289.5625 517.089844 Z M 266.5625 517.089844 " fill-opacity="1" fill-rule="nonzero"/></g><path fill="#fc98ec" d="M 266.5625 528.589844 L 266.5625 551.59375 L 255.066406 551.59375 L 255.066406 563.09375 L 243.570312 563.09375 L 232.066406 551.59375 L 225.707031 548.160156 L 225.707031 535.316406 L 232.066406 528.589844 L 243.207031 517.089844 L 255.066406 517.089844 L 255.066406 528.589844 Z M 225.707031 704.316406 L 255.066406 712.597656 L 266.5625 712.597656 L 266.5625 597.59375 L 232.070312 597.59375 Z M 225.707031 704.316406 " fill-opacity="1" fill-rule="nonzero"/><path fill="#fb4299" d="M 255.066406 701.097656 L 255.066406 712.597656 L 220.570312 712.597656 L 220.570312 597.59375 L 232.070312 597.59375 L 232.070312 701.097656 Z M 243.570312 563.09375 L 243.570312 551.59375 L 232.070312 551.59375 L 232.070312 563.09375 Z M 243.570312 517.09375 L 232.070312 517.09375 L 232.070312 528.59375 L 243.570312 528.59375 Z M 232.070312 540.09375 L 232.070312 528.59375 L 220.570312 528.59375 L 220.570312 551.59375 L 232.070312 551.59375 Z M 232.070312 540.09375 " fill-opacity="1" fill-rule="nonzero"/><path fill="#fbbad8" d="M 243.570312 655.097656 L 255.066406 655.097656 L 255.066406 666.597656 L 243.570312 666.597656 Z M 243.570312 632.09375 L 255.066406 632.09375 L 255.066406 620.59375 L 243.570312 620.59375 Z M 243.570312 528.59375 L 243.570312 540.09375 L 255.066406 540.09375 L 255.066406 528.59375 Z M 243.570312 528.59375 " fill-opacity="1" fill-rule="nonzero"/><g clip-path="url(#b38815738c)"><path fill="#ffffff" d="M 289.566406 517.09375 L 301.066406 517.09375 L 301.066406 563.09375 L 289.566406 563.09375 Z M 266.566406 563.09375 L 266.566406 574.59375 L 220.570312 574.59375 L 220.570312 563.09375 L 209.070312 563.09375 L 209.070312 574.59375 L 197.570312 574.59375 L 197.570312 735.597656 L 301.066406 735.597656 L 301.066406 574.59375 L 289.566406 574.59375 L 289.566406 563.09375 Z M 289.566406 597.59375 L 289.566406 724.097656 L 209.070312 724.097656 L 209.070312 586.09375 L 289.566406 586.09375 Z M 266.566406 517.09375 L 266.566406 505.59375 L 289.566406 505.59375 L 289.566406 517.09375 Z M 243.570312 666.597656 L 255.066406 666.597656 L 255.066406 678.097656 L 243.570312 678.097656 Z M 243.570312 632.09375 L 255.066406 632.09375 L 255.066406 643.597656 L 243.570312 643.597656 Z M 243.570312 540.09375 L 255.066406 540.09375 L 255.066406 551.59375 L 243.570312 551.59375 Z M 232.070312 505.59375 L 220.570312 505.59375 L 220.570312 494.09375 L 278.066406 494.09375 L 278.066406 505.59375 Z M 220.570312 517.09375 L 209.070312 517.09375 L 209.070312 505.59375 L 220.570312 505.59375 Z M 209.070312 551.59375 L 209.070312 563.09375 L 197.570312 563.09375 L 197.570312 517.09375 L 209.070312 517.09375 Z M 209.070312 551.59375 " fill-opacity="1" fill-rule="nonzero"/></g><g clip-path="url(#4aaf2ef313)"><path fill="#ffffff" d="M 397.246094 649.421875 L 397.246094 640.5625 L 370.582031 640.5625 L 370.582031 675.992188 L 397.246094 675.992188 L 397.246094 658.277344 L 459.457031 658.277344 L 459.457031 667.136719 L 468.34375 667.136719 L 468.34375 720.28125 L 459.457031 720.28125 L 459.457031 729.140625 L 299.484375 729.140625 L 299.484375 720.28125 L 290.597656 720.28125 L 290.597656 587.414062 L 299.484375 587.414062 L 299.484375 578.558594 L 459.457031 578.558594 L 459.457031 587.414062 L 468.34375 587.414062 L 468.34375 649.421875 Z M 397.246094 649.421875 " fill-opacity="1" fill-rule="nonzero"/></g><g clip-path="url(#9c7a135cf5)"><path fill="#000000" d="M 406.132812 640.5625 L 406.132812 631.703125 L 361.695312 631.703125 L 361.695312 684.851562 L 406.132812 684.851562 L 406.132812 667.136719 L 459.457031 667.136719 L 459.457031 711.425781 L 450.570312 711.425781 L 450.570312 720.28125 L 308.371094 720.28125 L 308.371094 711.425781 L 299.484375 711.425781 L 299.484375 596.273438 L 308.371094 596.273438 L 308.371094 587.414062 L 450.570312 587.414062 L 450.570312 596.273438 L 459.457031 596.273438 L 459.457031 640.5625 Z M 406.132812 640.5625 " fill-opacity="1" fill-rule="nonzero"/></g><path fill="#fc98ec" d="M 441.683594 631.703125 L 441.683594 622.847656 L 432.792969 605.132812 L 423.910156 596.273438 L 335.035156 596.273438 L 311.90625 613.988281 L 311.644531 692.824219 L 335.035156 711.425781 L 441.683594 711.425781 L 441.683594 675.992188 L 415.019531 675.992188 L 415.019531 693.710938 L 343.921875 693.710938 L 343.921875 622.847656 L 415.019531 622.847656 L 415.019531 631.703125 Z M 423.90625 693.710938 L 432.792969 693.710938 L 432.792969 702.566406 L 423.90625 702.566406 Z M 423.90625 693.710938 " fill-opacity="1" fill-rule="nonzero"/><path fill="#fb4299" d="M 317.261719 596.273438 L 317.261719 605.132812 L 308.371094 605.132812 L 308.371094 702.566406 L 317.261719 702.566406 L 317.261719 711.425781 L 335.035156 711.425781 L 335.035156 702.566406 L 326.148438 702.566406 L 326.148438 693.710938 L 317.261719 693.710938 L 317.261719 613.988281 L 326.148438 613.988281 L 326.148438 605.132812 L 335.035156 605.132812 L 335.035156 596.273438 Z M 317.261719 596.273438 " fill-opacity="1" fill-rule="nonzero"/><path fill="#fbbad8" d="M 441.683594 605.132812 L 441.683594 622.847656 L 432.796875 622.847656 L 432.796875 605.132812 Z M 423.910156 693.710938 L 432.796875 693.710938 L 432.796875 684.851562 L 423.910156 684.851562 Z M 423.910156 596.273438 L 423.910156 605.132812 L 432.796875 605.132812 L 432.796875 596.273438 Z M 423.910156 596.273438 " fill-opacity="1" fill-rule="nonzero"/><g clip-path="url(#337137e468)"><path fill="#ffffff" d="M 459.457031 587.414062 L 468.347656 587.414062 L 468.347656 649.421875 L 397.246094 649.421875 L 397.246094 640.5625 L 370.585938 640.5625 L 370.585938 675.996094 L 397.246094 675.996094 L 397.246094 658.277344 L 459.457031 658.277344 L 459.457031 667.136719 L 406.132812 667.136719 L 406.132812 684.851562 L 361.695312 684.851562 L 361.695312 631.707031 L 406.132812 631.707031 L 406.132812 640.5625 L 459.457031 640.5625 L 459.457031 596.273438 L 450.570312 596.273438 L 450.570312 587.414062 L 308.371094 587.414062 L 308.371094 596.273438 L 299.484375 596.273438 L 299.484375 711.425781 L 308.371094 711.425781 L 308.371094 720.285156 L 450.570312 720.285156 L 450.570312 711.425781 L 459.457031 711.425781 L 459.457031 667.136719 L 468.347656 667.136719 L 468.347656 720.285156 L 459.457031 720.285156 L 459.457031 729.140625 L 299.484375 729.140625 L 299.484375 720.285156 L 290.597656 720.285156 L 290.597656 587.414062 L 299.484375 587.414062 L 299.484375 578.558594 L 459.457031 578.558594 Z M 423.910156 693.710938 L 432.796875 693.710938 L 432.796875 702.566406 L 423.910156 702.566406 Z M 423.910156 693.710938 " fill-opacity="1" fill-rule="nonzero"/></g><g clip-path="url(#83501f4907)"><path fill="#ffffff" d="M 457.792969 576.660156 L 457.792969 641.546875 L 467.082031 641.546875 L 467.082031 724.976562 L 476.371094 724.976562 L 476.371094 734.246094 L 569.253906 734.246094 L 569.253906 724.976562 L 578.542969 724.976562 L 578.542969 650.816406 L 550.679688 650.816406 L 550.679688 641.546875 L 569.253906 641.546875 L 569.253906 576.660156 L 550.679688 576.660156 L 550.679688 502.5 L 467.082031 502.5 L 467.082031 576.660156 Z M 457.792969 576.660156 " fill-opacity="1" fill-rule="nonzero"/></g><path fill="#000000" d="M 467.082031 585.929688 L 467.082031 632.277344 L 476.371094 632.277344 L 476.371094 715.707031 L 485.660156 715.707031 L 485.660156 724.976562 L 559.96875 724.976562 L 559.96875 715.707031 L 569.253906 715.707031 L 569.253906 660.085938 L 541.390625 660.085938 L 541.390625 632.277344 L 559.96875 632.277344 L 559.96875 585.929688 L 541.390625 585.929688 L 541.390625 511.769531 L 476.371094 511.769531 L 476.371094 585.929688 Z M 467.082031 585.929688 " fill-opacity="1" fill-rule="nonzero"/><path fill="#fc98ec" d="M 476.371094 595.199219 L 476.371094 623.007812 L 494.949219 623.007812 L 494.949219 706.4375 L 504.238281 706.4375 L 504.238281 715.707031 L 550.679688 715.707031 L 550.679688 706.4375 L 556.503906 672.902344 L 541.386719 678.625 L 541.390625 687.894531 L 532.101562 687.894531 L 532.101562 623.007812 L 541.386719 623.007812 L 546.214844 600.800781 L 532.101562 595.199219 L 522.8125 521.039062 L 494.949219 521.039062 L 494.949219 595.199219 Z M 476.371094 595.199219 " fill-opacity="1" fill-rule="nonzero"/><path fill="#fb4299" d="M 532.101562 632.277344 L 532.101562 687.894531 L 522.8125 687.894531 L 522.8125 623.007812 L 532.101562 623.007812 Z M 532.101562 530.308594 L 532.101562 595.199219 L 522.8125 595.199219 L 522.8125 521.039062 L 532.101562 521.039062 Z M 550.675781 595.199219 L 550.675781 623.007812 L 541.386719 623.007812 L 541.386719 604.46875 L 532.101562 604.46875 L 532.101562 595.199219 Z M 559.964844 669.355469 L 559.964844 706.4375 L 550.675781 706.4375 L 550.675781 678.625 L 541.386719 678.625 L 541.386719 669.355469 Z M 559.964844 669.355469 " fill-opacity="1" fill-rule="nonzero"/><path fill="#fbbad8" d="M 513.523438 669.355469 L 513.523438 678.625 L 504.234375 678.625 L 504.234375 660.085938 L 513.523438 660.085938 Z M 513.523438 567.390625 L 513.523438 576.660156 L 504.234375 576.660156 L 504.234375 558.117188 L 513.523438 558.117188 Z M 513.523438 567.390625 " fill-opacity="1" fill-rule="nonzero"/><g clip-path="url(#0679525e12)"><path fill="#ffffff" d="M 467.082031 576.660156 L 457.792969 576.660156 L 457.792969 641.546875 L 467.082031 641.546875 L 467.082031 724.976562 L 476.367188 724.976562 L 476.367188 734.246094 L 569.253906 734.246094 L 569.253906 724.976562 L 578.542969 724.976562 L 578.542969 650.816406 L 550.675781 650.816406 L 550.675781 641.546875 L 569.253906 641.546875 L 569.253906 576.660156 L 550.675781 576.660156 L 550.675781 502.5 L 467.082031 502.5 Z M 476.367188 585.929688 L 476.367188 511.769531 L 541.386719 511.769531 L 541.386719 585.929688 L 559.964844 585.929688 L 559.964844 632.277344 L 541.386719 632.277344 L 541.386719 660.085938 L 569.253906 660.085938 L 569.253906 715.707031 L 559.964844 715.707031 L 559.964844 724.976562 L 485.65625 724.976562 L 485.65625 715.707031 L 476.367188 715.707031 L 476.367188 632.277344 L 467.082031 632.277344 L 467.082031 585.929688 Z M 513.523438 650.816406 L 513.523438 660.085938 L 504.234375 660.085938 L 504.234375 641.546875 L 513.523438 641.546875 Z M 513.523438 558.117188 L 504.234375 558.117188 L 504.234375 548.847656 L 513.523438 548.847656 Z M 513.523438 558.117188 " fill-opacity="1" fill-rule="nonzero"/></g><g clip-path="url(#c9aa8f3812)"><path fill="#ffffff" d="M 817.988281 593.378906 L 817.988281 584.875 L 664.765625 584.875 L 664.765625 593.378906 L 656.253906 593.378906 L 656.253906 720.957031 L 664.765625 720.957031 L 664.765625 729.464844 L 817.988281 729.464844 L 817.988281 720.957031 L 826.5 720.957031 L 826.5 593.378906 Z M 758.402344 678.433594 L 732.867188 678.433594 L 732.867188 644.410156 L 758.402344 644.410156 Z M 758.402344 678.433594 " fill-opacity="1" fill-rule="nonzero"/></g><path fill="#000000" d="M 809.476562 601.886719 L 809.476562 593.378906 L 673.277344 593.378906 L 673.277344 601.886719 L 664.765625 601.886719 L 664.765625 712.453125 L 673.277344 712.453125 L 673.277344 720.957031 L 809.476562 720.957031 L 809.476562 712.453125 L 817.988281 712.453125 L 817.988281 601.886719 Z M 724.351562 686.9375 L 724.351562 635.90625 L 766.914062 635.90625 L 766.914062 686.9375 Z M 724.351562 686.9375 " fill-opacity="1" fill-rule="nonzero"/><path fill="#fc98ec" d="M 792.453125 610.390625 L 783.941406 601.886719 L 698.816406 601.886719 L 684.734375 612.335938 L 678.167969 616.398438 L 679.105469 699.21875 L 686.050781 704.84375 L 698.816406 712.453125 L 792.453125 712.453125 L 792.453125 703.949219 L 800.964844 703.949219 L 800.964844 618.894531 Z M 775.425781 695.441406 L 707.328125 695.441406 L 707.328125 627.402344 L 775.425781 627.402344 Z M 775.425781 695.441406 " fill-opacity="1" fill-rule="nonzero"/><path fill="#fb4299" d="M 681.792969 601.886719 L 681.792969 610.390625 L 673.28125 610.390625 L 673.28125 703.949219 L 681.792969 703.949219 L 681.792969 712.453125 L 698.816406 712.453125 L 698.816406 703.949219 L 690.304688 703.949219 L 690.304688 695.441406 L 681.792969 695.441406 L 681.792969 618.894531 L 690.304688 618.894531 L 690.304688 610.390625 L 698.816406 610.390625 L 698.816406 601.886719 Z M 681.792969 601.886719 " fill-opacity="1" fill-rule="nonzero"/><path fill="#fbbad8" d="M 792.453125 618.894531 L 800.964844 618.894531 L 800.964844 610.390625 L 792.453125 610.390625 Z M 783.941406 661.421875 L 783.941406 669.925781 L 792.453125 669.925781 L 792.453125 652.917969 L 783.941406 652.917969 Z M 783.941406 635.90625 L 792.453125 635.90625 L 792.453125 627.402344 L 783.941406 627.402344 Z M 783.941406 601.886719 L 783.941406 610.390625 L 792.453125 610.390625 L 792.453125 601.886719 Z M 783.941406 601.886719 " fill-opacity="1" fill-rule="nonzero"/><g clip-path="url(#42981fa328)"><path fill="#ffffff" d="M 817.992188 593.378906 L 826.503906 593.378906 L 826.503906 720.957031 L 817.992188 720.957031 L 817.992188 729.464844 L 664.769531 729.464844 L 664.769531 720.957031 L 656.257812 720.957031 L 656.257812 593.378906 L 664.769531 593.378906 L 664.769531 584.875 L 817.992188 584.875 Z M 809.480469 601.886719 L 809.480469 593.378906 L 673.28125 593.378906 L 673.28125 601.886719 L 664.769531 601.886719 L 664.769531 712.453125 L 673.28125 712.453125 L 673.28125 720.957031 L 809.480469 720.957031 L 809.480469 712.453125 L 817.992188 712.453125 L 817.992188 601.886719 Z M 783.941406 678.433594 L 783.941406 686.9375 L 792.453125 686.9375 L 792.453125 669.925781 L 783.941406 669.925781 Z M 783.941406 644.410156 L 792.453125 644.410156 L 792.453125 635.90625 L 783.941406 635.90625 Z M 758.40625 635.90625 L 766.917969 635.90625 L 766.917969 686.9375 L 724.355469 686.9375 L 724.355469 635.90625 Z M 758.40625 644.410156 L 732.867188 644.410156 L 732.867188 678.433594 L 758.40625 678.433594 Z M 758.40625 644.410156 " fill-opacity="1" fill-rule="nonzero"/></g><g clip-path="url(#bae60164b5)"><path fill="#ffffff" d="M 998.417969 605.558594 L 998.417969 733.523438 L 916.40625 733.523438 L 916.40625 660.402344 L 898.179688 660.402344 L 898.179688 733.523438 L 816.167969 733.523438 L 816.167969 596.417969 L 825.28125 596.417969 L 825.28125 587.28125 L 980.191406 587.28125 L 980.191406 596.417969 L 989.304688 596.417969 L 989.304688 605.558594 Z M 998.417969 605.558594 " fill-opacity="1" fill-rule="nonzero"/></g><g clip-path="url(#0a472d84b4)"><path fill="#000000" d="M 989.304688 614.699219 L 989.304688 724.386719 L 925.515625 724.386719 L 925.515625 651.261719 L 889.066406 651.261719 L 889.066406 724.386719 L 825.28125 724.386719 L 825.28125 605.558594 L 834.394531 605.558594 L 834.394531 596.417969 L 879.953125 596.417969 L 879.953125 605.558594 L 889.066406 605.558594 L 889.066406 596.417969 L 971.078125 596.417969 L 971.078125 605.558594 L 980.191406 605.558594 L 980.191406 614.699219 Z M 989.304688 614.699219 " fill-opacity="1" fill-rule="nonzero"/></g><path fill="#fc98ec" d="M 971.078125 623.839844 L 971.078125 715.246094 L 934.628906 715.246094 L 934.628906 642.121094 L 879.953125 642.121094 L 879.953125 651.261719 L 870.84375 651.261719 L 870.84375 715.246094 L 852.621094 715.246094 L 837.304688 709.957031 L 839.648438 624.648438 L 852.621094 605.558594 L 870.84375 605.558594 L 870.84375 623.839844 L 879.953125 623.839844 L 879.953125 614.699219 L 898.179688 614.699219 L 898.179688 605.558594 L 943.742188 605.558594 L 943.742188 614.699219 L 961.964844 614.699219 L 961.964844 623.839844 Z M 971.078125 623.839844 " fill-opacity="1" fill-rule="nonzero"/><path fill="#fb4299" d="M 843.507812 614.699219 L 834.394531 614.699219 L 834.394531 715.246094 L 852.621094 715.246094 L 852.621094 706.105469 L 843.507812 706.105469 L 843.507812 623.839844 L 852.621094 623.839844 L 852.621094 605.558594 L 843.507812 605.558594 Z M 843.507812 614.699219 " fill-opacity="1" fill-rule="nonzero"/><path fill="#fbbad8" d="M 952.855469 669.542969 L 952.855469 678.683594 L 961.96875 678.683594 L 961.96875 660.402344 L 952.855469 660.402344 Z M 952.855469 642.121094 L 961.96875 642.121094 L 961.96875 632.980469 L 952.855469 632.980469 Z M 952.855469 642.121094 " fill-opacity="1" fill-rule="nonzero"/><g clip-path="url(#3139b4ad45)"><path fill="#ffffff" d="M 989.304688 605.558594 L 998.417969 605.558594 L 998.417969 733.527344 L 916.40625 733.527344 L 916.40625 660.402344 L 898.183594 660.402344 L 898.183594 733.527344 L 816.171875 733.527344 L 816.171875 596.421875 L 825.28125 596.421875 L 825.28125 587.28125 L 980.195312 587.28125 L 980.195312 596.421875 L 989.304688 596.421875 Z M 980.195312 614.699219 L 980.195312 605.558594 L 971.082031 605.558594 L 971.082031 596.421875 L 889.070312 596.421875 L 889.070312 605.558594 L 879.957031 605.558594 L 879.957031 596.421875 L 834.394531 596.421875 L 834.394531 605.558594 L 825.28125 605.558594 L 825.28125 724.386719 L 889.070312 724.386719 L 889.070312 651.261719 L 925.519531 651.261719 L 925.519531 724.386719 L 989.304688 724.386719 L 989.304688 614.699219 Z M 952.855469 687.824219 L 952.855469 696.964844 L 961.96875 696.964844 L 961.96875 678.683594 L 952.855469 678.683594 Z M 952.855469 651.261719 L 961.96875 651.261719 L 961.96875 642.121094 L 952.855469 642.121094 Z M 952.855469 651.261719 " fill-opacity="1" fill-rule="nonzero"/></g><g clip-path="url(#68f80a7b87)"><path fill="#ffffff" d="M 1142.734375 596.542969 L 1142.734375 729.867188 L 1000.492188 729.867188 L 1000.492188 713.203125 L 983.757812 713.203125 L 983.757812 638.207031 L 992.125 638.207031 L 992.125 629.875 L 1000.492188 629.875 L 1000.492188 596.542969 L 1008.859375 596.542969 L 1008.859375 588.207031 L 1017.226562 588.207031 L 1017.226562 579.875 L 1126 579.875 L 1126 588.207031 L 1134.367188 588.207031 L 1134.367188 596.542969 Z M 1142.734375 596.542969 " fill-opacity="1" fill-rule="nonzero"/></g><path fill="#000000" d="M 1126 604.875 L 1126 596.542969 L 1117.632812 596.542969 L 1117.632812 588.207031 L 1025.59375 588.207031 L 1025.59375 596.542969 L 1017.226562 596.542969 L 1017.226562 604.875 L 1008.859375 604.875 L 1008.859375 638.207031 L 1000.492188 638.207031 L 1000.492188 646.539062 L 992.125 646.539062 L 992.125 704.871094 L 1000.492188 704.871094 L 1000.492188 713.203125 L 1008.859375 713.203125 L 1008.859375 721.535156 L 1134.367188 721.535156 L 1134.367188 604.875 Z M 1059.0625 621.539062 L 1084.164062 621.539062 L 1084.164062 629.875 L 1059.0625 629.875 Z M 1084.164062 671.539062 L 1075.796875 671.539062 L 1075.796875 679.871094 L 1059.0625 679.871094 L 1059.0625 663.207031 L 1084.164062 663.207031 Z M 1084.164062 671.539062 " fill-opacity="1" fill-rule="nonzero"/><path fill="#fc98ec" d="M 1109.265625 604.875 L 1109.265625 596.542969 L 1039.710938 596.542969 L 1039.710938 604.875 L 1033.960938 604.875 L 1028.925781 608.136719 L 1025.59375 613.207031 L 1021.410156 616.519531 L 1025.59375 621.542969 L 1050.695312 621.539062 L 1050.695312 613.207031 L 1092.53125 613.207031 L 1092.53125 638.207031 L 1025.59375 638.207031 L 1021.96875 642.375 L 1017.226562 646.539062 L 1014.609375 654.871094 L 1004.460938 661.207031 L 1004.460938 691.921875 L 1012.390625 696.539062 L 1017.226562 701.605469 L 1023.316406 708.164062 L 1033.960938 713.203125 L 1117.632812 713.203125 L 1117.632812 604.875 Z M 1092.53125 679.871094 L 1084.164062 679.871094 L 1084.164062 688.203125 L 1042.328125 688.203125 L 1042.328125 679.871094 L 1033.960938 679.871094 L 1033.960938 663.207031 L 1042.328125 663.207031 L 1042.328125 654.871094 L 1092.53125 654.871094 Z M 1092.53125 679.871094 " fill-opacity="1" fill-rule="nonzero"/><path fill="#fb4299" d="M 1033.960938 604.875 L 1033.960938 613.207031 L 1025.59375 613.207031 L 1025.59375 604.875 Z M 1025.59375 696.539062 L 1017.226562 696.539062 L 1017.226562 688.203125 L 1008.859375 688.203125 L 1008.859375 663.207031 L 1017.226562 663.207031 L 1017.226562 646.539062 L 1008.859375 646.539062 L 1008.859375 654.871094 L 1000.492188 654.871094 L 1000.492188 696.539062 L 1008.859375 696.539062 L 1008.859375 704.871094 L 1017.226562 704.871094 L 1017.226562 713.203125 L 1033.960938 713.203125 L 1033.960938 704.871094 L 1025.59375 704.871094 Z M 1025.59375 638.207031 L 1017.226562 638.207031 L 1017.226562 646.539062 L 1025.59375 646.539062 Z M 1017.226562 621.542969 L 1025.59375 621.542969 L 1025.59375 613.207031 L 1017.226562 613.207031 Z M 1017.226562 621.542969 " fill-opacity="1" fill-rule="nonzero"/><path fill="#fbbad8" d="M 1100.902344 638.207031 L 1109.269531 638.207031 L 1109.269531 663.207031 L 1100.902344 663.207031 Z M 1100.902344 613.207031 L 1100.902344 621.542969 L 1109.269531 621.542969 L 1109.269531 613.207031 Z M 1100.902344 613.207031 " fill-opacity="1" fill-rule="nonzero"/><g clip-path="url(#4d38841b58)"><path fill="#ffffff" d="M 1075.800781 621.542969 L 1084.167969 621.542969 L 1084.167969 629.875 L 1059.0625 629.875 L 1059.0625 621.542969 Z M 1067.433594 663.207031 L 1059.0625 663.207031 L 1059.0625 679.871094 L 1075.800781 679.871094 L 1075.800781 671.539062 L 1084.167969 671.539062 L 1084.167969 663.207031 Z M 1100.902344 671.539062 L 1100.902344 688.203125 L 1109.269531 688.203125 L 1109.269531 663.207031 L 1100.902344 663.207031 Z M 1142.738281 596.542969 L 1142.738281 729.871094 L 1000.492188 729.871094 L 1000.492188 721.535156 L 992.125 721.535156 L 992.125 713.203125 L 983.757812 713.203125 L 983.757812 638.207031 L 992.125 638.207031 L 992.125 629.875 L 1000.492188 629.875 L 1000.492188 596.542969 L 1008.859375 596.542969 L 1008.859375 588.210938 L 1017.226562 588.210938 L 1017.226562 579.875 L 1126.003906 579.875 L 1126.003906 588.210938 L 1134.371094 588.210938 L 1134.371094 596.542969 Z M 1134.371094 604.875 L 1126.003906 604.875 L 1126.003906 596.542969 L 1117.636719 596.542969 L 1117.636719 588.210938 L 1025.59375 588.210938 L 1025.59375 596.542969 L 1017.226562 596.542969 L 1017.226562 604.875 L 1008.859375 604.875 L 1008.859375 638.207031 L 1000.492188 638.207031 L 1000.492188 646.539062 L 992.125 646.539062 L 992.125 704.871094 L 1000.492188 704.871094 L 1000.492188 713.203125 L 1008.859375 713.203125 L 1008.859375 721.535156 L 1134.371094 721.535156 Z M 1100.902344 629.875 L 1109.269531 629.875 L 1109.269531 621.542969 L 1100.902344 621.542969 Z M 1100.902344 629.875 " fill-opacity="1" fill-rule="nonzero"/></g><g clip-path="url(#ea20194f7f)"><path fill="#ffffff" d="M 1288.027344 594.042969 L 1288.027344 650.160156 L 1222.558594 650.160156 L 1222.558594 659.511719 L 1213.203125 659.511719 L 1213.203125 734.335938 L 1129.03125 734.335938 L 1129.03125 584.691406 L 1138.382812 584.691406 L 1138.382812 575.335938 L 1269.320312 575.335938 L 1269.320312 584.691406 L 1278.675781 584.691406 L 1278.675781 594.042969 Z M 1288.027344 594.042969 " fill-opacity="1" fill-rule="nonzero"/></g><g clip-path="url(#b79b30d641)"><path fill="#000000" d="M 1278.675781 603.394531 L 1278.675781 640.804688 L 1231.910156 640.804688 L 1231.910156 631.453125 L 1222.558594 631.453125 L 1222.558594 640.804688 L 1213.203125 640.804688 L 1213.203125 650.160156 L 1203.851562 650.160156 L 1203.851562 724.980469 L 1138.382812 724.980469 L 1138.382812 594.042969 L 1147.734375 594.042969 L 1147.734375 584.691406 L 1194.5 584.691406 L 1194.5 594.042969 L 1203.851562 594.042969 L 1203.851562 584.691406 L 1259.96875 584.691406 L 1259.96875 594.042969 L 1269.320312 594.042969 L 1269.320312 603.394531 Z M 1278.675781 603.394531 " fill-opacity="1" fill-rule="nonzero"/></g><path fill="#fc98ec" d="M 1250.617188 612.75 L 1241.261719 603.394531 L 1241.261719 594.042969 L 1213.203125 594.042969 L 1213.203125 603.394531 L 1203.851562 603.394531 L 1203.851562 612.75 L 1194.5 612.75 L 1194.5 622.101562 L 1185.144531 622.101562 L 1185.144531 594.042969 L 1166.441406 594.042969 L 1157.089844 603.394531 L 1149.246094 610.273438 L 1151.289062 711.019531 L 1166.441406 715.628906 L 1185.144531 715.628906 L 1185.144531 650.160156 L 1194.5 650.160156 L 1194.5 640.804688 L 1203.851562 640.804688 L 1203.851562 631.453125 L 1213.203125 631.453125 L 1213.203125 622.101562 L 1231.910156 622.101562 L 1231.910156 631.453125 L 1259.96875 631.453125 L 1259.972656 622.101562 Z M 1250.617188 612.75 " fill-opacity="1" fill-rule="nonzero"/><path fill="#fb4299" d="M 1157.089844 603.394531 L 1166.441406 603.394531 L 1166.441406 594.042969 L 1157.089844 594.042969 Z M 1147.738281 612.75 L 1147.738281 715.628906 L 1166.441406 715.628906 L 1166.441406 706.277344 L 1157.089844 706.277344 L 1157.089844 603.394531 L 1147.738281 603.394531 Z M 1147.738281 612.75 " fill-opacity="1" fill-rule="nonzero"/><path fill="#fbbad8" d="M 1250.617188 622.101562 L 1259.972656 622.101562 L 1259.972656 612.75 L 1250.617188 612.75 Z M 1241.265625 603.394531 L 1241.265625 612.75 L 1250.617188 612.75 L 1250.617188 603.394531 Z M 1241.265625 603.394531 " fill-opacity="1" fill-rule="nonzero"/><g clip-path="url(#c1eb5d01c3)"><path fill="#ffffff" d="M 1278.675781 594.042969 L 1288.03125 594.042969 L 1288.03125 650.160156 L 1222.558594 650.160156 L 1222.558594 659.511719 L 1213.207031 659.511719 L 1213.207031 734.335938 L 1129.03125 734.335938 L 1129.03125 584.691406 L 1138.382812 584.691406 L 1138.382812 575.335938 L 1269.324219 575.335938 L 1269.324219 584.691406 L 1278.675781 584.691406 Z M 1269.324219 603.394531 L 1269.324219 594.042969 L 1259.972656 594.042969 L 1259.972656 584.691406 L 1203.855469 584.691406 L 1203.855469 594.042969 L 1194.5 594.042969 L 1194.5 584.691406 L 1147.738281 584.691406 L 1147.738281 594.042969 L 1138.382812 594.042969 L 1138.382812 724.980469 L 1203.855469 724.980469 L 1203.855469 650.160156 L 1213.207031 650.160156 L 1213.207031 640.808594 L 1222.558594 640.808594 L 1222.558594 631.453125 L 1231.914062 631.453125 L 1231.914062 640.808594 L 1278.675781 640.808594 L 1278.675781 603.394531 Z M 1241.265625 622.101562 L 1250.617188 622.101562 L 1250.617188 612.75 L 1241.265625 612.75 Z M 1241.265625 622.101562 " fill-opacity="1" fill-rule="nonzero"/></g><g clip-path="url(#5e33a58f5c)"><path fill="#ffffff" d="M 654.15625 570.5 L 654.15625 581.535156 L 665.15625 581.535156 L 665.15625 736.046875 L 566.164062 736.046875 L 566.164062 581.535156 L 577.164062 581.535156 L 577.164062 570.5 L 566.164062 570.5 L 566.164062 526.351562 L 577.164062 526.351562 L 577.164062 515.316406 L 588.164062 515.316406 L 588.164062 504.28125 L 632.160156 504.28125 L 632.160156 515.316406 L 654.15625 515.316406 L 654.15625 526.351562 L 665.15625 526.351562 L 665.15625 570.5 Z M 654.15625 570.5 " fill-opacity="1" fill-rule="nonzero"/></g><g clip-path="url(#ab78a59c12)"><path fill="#000000" d="M 577.164062 592.574219 L 654.15625 592.574219 L 654.15625 725.011719 L 577.164062 725.011719 Z M 632.160156 526.351562 L 632.160156 515.316406 L 588.164062 515.316406 L 588.164062 526.351562 L 577.164062 526.351562 L 577.164062 570.5 L 588.164062 570.5 L 588.164062 581.535156 L 632.160156 581.535156 L 632.160156 570.5 L 654.15625 570.5 L 654.15625 526.351562 Z M 632.160156 526.351562 " fill-opacity="1" fill-rule="nonzero"/></g><path fill="#fc98ec" d="M 632.160156 537.390625 L 632.160156 559.464844 L 621.160156 559.464844 L 621.160156 570.5 L 610.164062 570.5 L 599.160156 559.464844 L 593.078125 556.167969 L 593.078125 543.84375 L 599.160156 537.390625 L 609.820312 526.351562 L 621.160156 526.351562 L 621.160156 537.390625 Z M 593.078125 706.027344 L 621.164062 713.976562 L 632.160156 713.976562 L 632.160156 603.609375 L 599.164062 603.609375 Z M 593.078125 706.027344 " fill-opacity="1" fill-rule="nonzero"/><path fill="#fb4299" d="M 621.164062 702.9375 L 621.164062 713.976562 L 588.164062 713.976562 L 588.164062 603.609375 L 599.164062 603.609375 L 599.164062 702.9375 Z M 610.164062 570.5 L 610.164062 559.464844 L 599.164062 559.464844 L 599.164062 570.5 Z M 610.164062 526.355469 L 599.164062 526.355469 L 599.164062 537.390625 L 610.164062 537.390625 Z M 599.164062 548.425781 L 599.164062 537.390625 L 588.164062 537.390625 L 588.164062 559.464844 L 599.164062 559.464844 Z M 599.164062 548.425781 " fill-opacity="1" fill-rule="nonzero"/><path fill="#fbbad8" d="M 610.164062 658.792969 L 621.164062 658.792969 L 621.164062 669.828125 L 610.164062 669.828125 Z M 610.164062 636.71875 L 621.164062 636.71875 L 621.164062 625.683594 L 610.164062 625.683594 Z M 610.164062 537.390625 L 610.164062 548.425781 L 621.164062 548.425781 L 621.164062 537.390625 Z M 610.164062 537.390625 " fill-opacity="1" fill-rule="nonzero"/><g clip-path="url(#ccfc9e0822)"><path fill="#ffffff" d="M 654.160156 526.355469 L 665.160156 526.355469 L 665.160156 570.5 L 654.160156 570.5 Z M 632.160156 570.5 L 632.160156 581.535156 L 588.164062 581.535156 L 588.164062 570.5 L 577.164062 570.5 L 577.164062 581.535156 L 566.167969 581.535156 L 566.167969 736.046875 L 665.160156 736.046875 L 665.160156 581.535156 L 654.160156 581.535156 L 654.160156 570.5 Z M 654.160156 603.609375 L 654.160156 725.011719 L 577.164062 725.011719 L 577.164062 592.574219 L 654.160156 592.574219 Z M 632.160156 526.355469 L 632.160156 515.316406 L 654.160156 515.316406 L 654.160156 526.355469 Z M 610.164062 669.828125 L 621.164062 669.828125 L 621.164062 680.867188 L 610.164062 680.867188 Z M 610.164062 636.71875 L 621.164062 636.71875 L 621.164062 647.757812 L 610.164062 647.757812 Z M 610.164062 548.425781 L 621.164062 548.425781 L 621.164062 559.464844 L 610.164062 559.464844 Z M 599.164062 515.316406 L 588.164062 515.316406 L 588.164062 504.28125 L 643.160156 504.28125 L 643.160156 515.316406 Z M 588.164062 526.355469 L 577.164062 526.355469 L 577.164062 515.316406 L 588.164062 515.316406 Z M 577.164062 559.464844 L 577.164062 570.5 L 566.167969 570.5 L 566.167969 526.355469 L 577.164062 526.355469 Z M 577.164062 559.464844 " fill-opacity="1" fill-rule="nonzero"/></g><g clip-path="url(#54692f574f)"><path fill="#ffffff" d="M 1440.03125 574.628906 L 1440.03125 781.863281 L 1430.613281 781.863281 L 1430.613281 791.285156 L 1421.195312 791.285156 L 1421.195312 800.703125 L 1411.78125 800.703125 L 1411.78125 810.125 L 1289.363281 810.125 L 1289.363281 800.703125 L 1270.53125 800.703125 L 1270.53125 725.34375 L 1289.363281 725.34375 L 1289.363281 706.503906 L 1270.53125 706.503906 L 1270.53125 574.628906 Z M 1440.03125 574.628906 " fill-opacity="1" fill-rule="nonzero"/></g><g clip-path="url(#fbafe3409c)"><path fill="#000000" d="M 1430.613281 584.046875 L 1430.613281 772.445312 L 1421.195312 772.445312 L 1421.195312 781.863281 L 1411.78125 781.863281 L 1411.78125 791.285156 L 1402.363281 791.285156 L 1402.363281 800.703125 L 1298.78125 800.703125 L 1298.78125 791.285156 L 1279.945312 791.285156 L 1279.945312 734.765625 L 1345.863281 734.765625 L 1345.863281 753.605469 L 1364.695312 753.605469 L 1364.695312 715.925781 L 1298.78125 715.925781 L 1298.78125 706.503906 L 1289.363281 706.503906 L 1289.363281 697.085938 L 1279.945312 697.085938 L 1279.945312 584.046875 L 1345.863281 584.046875 L 1345.863281 659.40625 L 1364.695312 659.40625 L 1364.695312 584.046875 Z M 1430.613281 584.046875 " fill-opacity="1" fill-rule="nonzero"/></g><path fill="#fc98ec" d="M 1411.78125 593.46875 L 1411.78125 772.445312 L 1402.363281 772.445312 L 1402.363281 781.863281 L 1392.945312 781.863281 L 1392.945312 791.285156 L 1308.195312 791.285156 L 1308.195312 781.863281 L 1289.363281 781.863281 L 1289.363281 744.183594 L 1327.03125 744.183594 L 1327.03125 763.023438 L 1374.113281 763.023438 L 1374.113281 706.503906 L 1308.195312 706.503906 L 1308.195312 697.085938 L 1298.78125 697.085938 L 1298.78125 687.664062 L 1289.363281 687.664062 L 1289.363281 593.46875 L 1327.03125 593.46875 L 1327.03125 668.824219 L 1374.113281 668.824219 L 1374.113281 593.46875 Z M 1411.78125 593.46875 " fill-opacity="1" fill-rule="nonzero"/><path fill="#fb4299" d="M 1317.617188 772.445312 L 1298.78125 772.445312 L 1298.78125 744.183594 L 1289.367188 744.183594 L 1289.367188 781.863281 L 1308.199219 781.863281 L 1308.199219 791.285156 L 1327.03125 791.285156 L 1327.03125 781.863281 L 1317.617188 781.863281 Z M 1317.617188 687.664062 L 1308.199219 687.664062 L 1308.199219 678.246094 L 1298.78125 678.246094 L 1298.78125 593.46875 L 1289.367188 593.46875 L 1289.367188 687.664062 L 1298.78125 687.664062 L 1298.78125 697.085938 L 1308.199219 697.085938 L 1308.199219 706.503906 L 1327.03125 706.503906 L 1327.03125 697.085938 L 1317.617188 697.085938 Z M 1317.617188 687.664062 " fill-opacity="1" fill-rule="nonzero"/><path fill="#fbbad8" d="M 1392.949219 744.183594 L 1392.949219 753.605469 L 1402.367188 753.605469 L 1402.367188 734.765625 L 1392.949219 734.765625 Z M 1392.949219 631.148438 L 1392.949219 649.988281 L 1402.367188 649.988281 L 1402.367188 621.726562 L 1392.949219 621.726562 Z M 1392.949219 631.148438 " fill-opacity="1" fill-rule="nonzero"/><g clip-path="url(#1642d93594)"><path fill="#ffffff" d="M 1421.199219 574.628906 L 1270.53125 574.628906 L 1270.53125 706.503906 L 1289.367188 706.503906 L 1289.367188 697.085938 L 1279.949219 697.085938 L 1279.949219 584.046875 L 1345.867188 584.046875 L 1345.867188 659.40625 L 1364.699219 659.40625 L 1364.699219 584.046875 L 1430.617188 584.046875 L 1430.617188 772.445312 L 1421.199219 772.445312 L 1421.199219 781.863281 L 1411.78125 781.863281 L 1411.78125 791.285156 L 1402.367188 791.285156 L 1402.367188 800.703125 L 1298.78125 800.703125 L 1298.78125 791.285156 L 1279.949219 791.285156 L 1279.949219 734.765625 L 1345.867188 734.765625 L 1345.867188 753.605469 L 1364.699219 753.605469 L 1364.699219 715.925781 L 1298.78125 715.925781 L 1298.78125 706.503906 L 1289.367188 706.503906 L 1289.367188 725.34375 L 1270.53125 725.34375 L 1270.53125 800.703125 L 1289.367188 800.703125 L 1289.367188 810.125 L 1411.78125 810.125 L 1411.78125 800.703125 L 1421.199219 800.703125 L 1421.199219 791.285156 L 1430.617188 791.285156 L 1430.617188 781.863281 L 1440.03125 781.863281 L 1440.03125 574.628906 Z M 1402.367188 725.34375 L 1402.367188 715.925781 L 1392.949219 715.925781 L 1392.949219 734.765625 L 1402.367188 734.765625 Z M 1402.367188 612.308594 L 1402.367188 602.886719 L 1392.949219 602.886719 L 1392.949219 621.726562 L 1402.367188 621.726562 Z M 1402.367188 612.308594 " fill-opacity="1" fill-rule="nonzero"/></g></svg>