<svg xmlns="http://www.w3.org/2000/svg" xmlns:xlink="http://www.w3.org/1999/xlink" width="1080" zoomAndPan="magnify" viewBox="0 0 810 809.999993" height="1080" preserveAspectRatio="xMidYMid meet" version="1.0"><defs><clipPath id="3670bb117b"><path d="M 338 54 L 807 54 L 807 757.269531 L 338 757.269531 Z M 338 54 " clip-rule="nonzero"/></clipPath></defs><rect x="-81" width="972" fill="#ffffff" y="-80.999999" height="971.999992" fill-opacity="1"/><rect x="-81" width="972" fill="#ffffff" y="-80.999999" height="971.999992" fill-opacity="1"/><rect x="-81" width="972" fill="#ffffff" y="-80.999999" height="971.999992" fill-opacity="1"/><g clip-path="url(#3670bb117b)"><path fill="#fe69c9" d="M 399.046875 554.160156 C 393.167969 558.746094 385.222656 560.652344 377.324219 560.652344 C 370.414062 560.652344 363.542969 559.191406 358.125 556.789062 C 345.109375 551.027344 343.007812 541.140625 342.710938 537.15625 C 342.246094 530.96875 344.21875 521.984375 356.257812 514.328125 C 368.617188 506.460938 371.554688 504.589844 383.257812 492.035156 C 406.667969 466.910156 415.074219 441.703125 412.273438 405.015625 C 408.089844 350.289062 387.933594 313.753906 352.355469 296.429688 C 339.742188 290.285156 337.222656 279.148438 338.898438 271.480469 C 341.726562 258.542969 354.980469 251.292969 366.019531 251.039062 C 394.289062 250.320312 419.984375 264.648438 440.433594 292.234375 C 458.527344 316.640625 469.015625 346.183594 474.625 366.667969 C 485.652344 406.917969 481.003906 449.304688 461.542969 486.023438 C 446.109375 515.140625 421.289062 536.804688 399.046875 554.160156 Z M 617.59375 304.996094 C 605.0625 251.175781 583.332031 207.132812 553.167969 174.253906 C 532.207031 150.777344 511.0625 137.074219 503.035156 132.328125 C 494.835938 127.40625 490.5625 125.675781 488.507812 124.84375 L 488.296875 124.757812 C 487.96875 124.601562 487.632812 124.457031 487.296875 124.324219 C 486.09375 123.847656 484.894531 123.332031 483.691406 122.816406 C 478.273438 120.5 471.589844 117.644531 463.644531 117.164062 C 450.847656 115.339844 430.792969 121.265625 424.921875 135.90625 C 421.511719 144.410156 422.820312 156.640625 436.730469 165.464844 C 437.402344 165.890625 438.101562 166.265625 438.832031 166.585938 L 443.652344 168.71875 C 445.738281 169.636719 447.714844 170.503906 448.140625 170.753906 C 448.417969 170.949219 449.359375 171.746094 450.1875 172.449219 C 451.207031 173.3125 452.476562 174.390625 454.328125 175.914062 C 462.179688 182.21875 470.445312 189.015625 477.554688 196.703125 C 477.769531 196.9375 477.996094 197.164062 478.222656 197.386719 C 519.546875 237.15625 545.769531 307.085938 548.410156 384.523438 C 547.386719 430.023438 541.785156 459.753906 527.054688 497.921875 C 514.40625 530.597656 498.113281 560.851562 478.5 588.015625 C 472.851562 596.054688 465.859375 604.421875 458.457031 613.285156 C 451.226562 621.933594 443.757812 630.875 437.460938 639.707031 C 434.140625 644.101562 433.152344 645.363281 432.203125 646.574219 C 431.457031 647.523438 430.734375 648.445312 429.078125 650.621094 C 425.941406 653.703125 423.800781 657.566406 422.871094 661.824219 C 420.082031 671.429688 424.53125 682.15625 433.898438 687.890625 C 440.703125 692.507812 449.117188 694.871094 458.117188 694.871094 C 462.941406 694.871094 467.9375 694.191406 472.9375 692.816406 C 481.871094 690.496094 487.460938 684.867188 491.539062 680.757812 L 492.777344 679.523438 C 498.058594 674.316406 503.320312 669.082031 508.707031 663.695312 C 577.261719 593.539062 620.460938 500.703125 627.214844 409.125 C 629.777344 377.726562 626.628906 343.664062 617.59375 304.996094 Z M 798.246094 334.179688 C 779.824219 257.875 740.070312 185.242188 683.273438 124.117188 C 669.558594 109.375 654.375 95.167969 638.144531 81.902344 C 637.996094 81.78125 637.847656 81.664062 637.695312 81.546875 C 635.960938 80.226562 634.226562 78.871094 632.484375 77.511719 C 622.242188 69.511719 610.632812 60.449219 596.117188 55.929688 C 595.882812 55.855469 595.648438 55.789062 595.410156 55.726562 C 585.484375 53.121094 574.585938 54.265625 565.511719 58.871094 C 565.410156 58.921875 565.308594 58.972656 565.207031 59.027344 C 556.726562 63.554688 551.695312 71.453125 551.75 80.164062 C 551.800781 88.765625 556.8125 96.511719 565.164062 100.933594 C 574.824219 106.257812 586.074219 116.617188 599.085938 128.605469 C 602.203125 131.472656 605.394531 134.414062 608.675781 137.382812 C 621.847656 149.90625 635.054688 164.523438 650.210938 183.339844 C 663.878906 201.472656 682.847656 229.484375 695.335938 254.066406 C 707.085938 276.871094 716.425781 299.554688 723.109375 321.570312 C 730.011719 343.90625 732.910156 356.199219 735.371094 380.429688 C 739.113281 433.179688 728.371094 479.15625 716.171875 520.992188 C 694.085938 586.257812 661.765625 640.375 620.101562 681.851562 C 617.96875 683.839844 615.8125 685.820312 613.660156 687.792969 C 605.277344 695.476562 596.613281 703.421875 588.808594 712.660156 C 588.734375 712.753906 588.652344 712.847656 588.578125 712.941406 C 587.855469 713.839844 587.046875 714.667969 586.253906 715.515625 C 585.207031 716.621094 584.058594 717.835938 582.890625 719.226562 C 579.316406 722.492188 577.039062 726.777344 576.453125 731.414062 C 575.371094 738.835938 578.207031 746.074219 584.121094 750.898438 C 589.890625 755.601562 597.617188 757.304688 604.46875 757.304688 C 608.664062 757.304688 612.523438 756.664062 615.414062 755.691406 C 617.542969 755.035156 619.589844 754.101562 621.621094 752.84375 C 623.117188 752.082031 624.472656 751.308594 625.691406 750.613281 L 630.777344 747.671875 C 643.011719 740.574219 645.378906 739.148438 657.261719 730.421875 L 658.0625 729.84375 C 658.503906 729.527344 658.949219 729.207031 659.390625 728.878906 C 663.359375 726.085938 667.921875 722.777344 672.195312 718.707031 C 703.855469 688.253906 731.296875 650.75 753.808594 607.152344 C 764.917969 585.328125 773.789062 564.789062 780.964844 544.257812 C 785.953125 529.65625 789.625 514.769531 793.183594 500.371094 L 794.40625 495.417969 C 808.847656 435.421875 810.136719 381.175781 798.246094 334.179688 Z M 798.246094 334.179688 " fill-opacity="1" fill-rule="nonzero"/></g><path fill="#000000" d="M 261.398438 607.542969 C 261.9375 587.664062 261.597656 567.761719 262.121094 547.875 C 262.640625 502.367188 264.664062 456.882812 264.652344 411.371094 C 264.082031 365.902344 262.140625 320.460938 262.085938 274.984375 C 261.84375 245.746094 263.699219 216.503906 262.574219 187.265625 C 262.382812 182.328125 262.710938 178.050781 259.5625 176.117188 C 256.761719 174.394531 250.128906 167.558594 232.71875 186.167969 C 224.328125 195.140625 216.582031 204.675781 208.308594 213.761719 C 162.925781 263.605469 146.441406 279.710938 145.167969 280.042969 C 144.929688 280.109375 144.621094 280.183594 144.382812 280.214844 C 144.46875 280.445312 134.308594 281.28125 129.519531 281.671875 C 101.898438 283.882812 90.5 284.429688 62.890625 286.808594 C 44.925781 288.628906 26.921875 289.855469 8.9375 291.609375 C 5.566406 291.9375 3.472656 292.355469 3.546875 294.582031 C 3.601562 296.269531 4.449219 396.957031 1.988281 499.335938 C 1.726562 510.285156 0.078125 521.980469 1.609375 532.789062 C 5.011719 538.9375 13.097656 539.558594 19.421875 539.476562 C 24.5 539.503906 29.582031 539.566406 34.664062 539.597656 C 71.855469 539.84375 119.226562 539.386719 138.84375 536.40625 C 138.859375 536.410156 138.847656 536.417969 138.886719 536.417969 C 139.183594 536.375 139.488281 536.328125 139.789062 536.28125 C 152.386719 549.378906 171.976562 569.140625 240.042969 628.484375 C 242.609375 630.71875 250.222656 640.925781 256.226562 637.492188 C 257.332031 636.855469 258.496094 636.125 258.589844 634.726562 C 258.710938 633.875 258.886719 633.019531 259.011719 632.160156 C 260.476562 624.03125 261.121094 615.792969 261.398438 607.542969 " fill-opacity="1" fill-rule="nonzero"/></svg>